<?xml version="1.0" standalone="no"?><!DOCTYPE svg PUBLIC "-//W3C//DTD SVG 1.1//EN" "http://www.w3.org/Graphics/SVG/1.1/DTD/svg11.dtd"><svg t="1736562020374" class="icon" viewBox="0 0 1024 1024" version="1.1" xmlns="http://www.w3.org/2000/svg" p-id="8610" xmlns:xlink="http://www.w3.org/1999/xlink" width="200" height="200"><path d="M728.023278 654.240722l-142.345722 58.947885 108.935787-108.935787a242.727526 242.727526 0 0 0-24.423952-24.423952L561.199604 688.818655l58.987885-142.407722c-10.24798-5.14199-20.865959-9.629981-31.881938-13.295974l-59.029885 142.511721v-154.121699c-5.727989-0.405999-11.439978-0.871998-17.271966-0.871998-5.831989 0-11.543977 0.465999-17.271966 0.871998v154.0737l-59.019885-142.469722c-11.017978 3.663993-21.635958 8.151984-31.883938 13.295974l59.011885 142.447722-109.025787-109.021787a242.897526 242.897526 0 0 0-24.421952 24.421952l108.997787 108.995787-142.417722-58.991885c-5.14199 10.24798-9.631981 20.865959-13.297974 31.883938l188.171632 77.943848 89.361826-2.959995 181.115646-75.003853c-3.665993-11.013978-8.153984-21.631958-13.299974-31.879938z" fill="#504B5A" p-id="8611"></path><path d="M1022.684703 550.894924C936.72887 343.659329 736.283262 209.74359 512.0017 209.74359S87.27253 343.657329 1.316697 550.894924c-1.755997 4.233992-1.755997 8.989982 0 13.223974s5.10999 7.599985 9.343982 9.351982l271.34147 112.39378a17.253966 17.253966 0 0 0 6.611987 1.323998 17.305966 17.305966 0 0 0 15.957969-10.667979c34.915932-84.199836 116.331773-138.613729 207.429595-138.61373 91.083822 0 172.497663 54.403894 207.429595 138.60373 3.675993 8.821983 13.813973 12.979975 22.567956 9.335981l271.34147-112.37778a17.273966 17.273966 0 0 0 9.343982-9.351982 17.269966 17.269966 0 0 0 0-13.221974z" fill="#FF4B4B" p-id="8612"></path><path d="M512.0037 762.444511m-51.815899 0a51.815899 51.815899 0 1 0 103.631798 0 51.815899 51.815899 0 1 0-103.631798 0Z" fill="#625D6B" p-id="8613"></path><path d="M316.390082 652.512726a224.701561 224.701561 0 0 1 19.139963-28.761944L62.180579 441.103138c-6.657987 9.345982-12.901975 19.039963-19.005963 28.849944l273.215466 182.559644zM529.273666 210.383589c-5.763989-0.18-11.471978-0.643999-17.271966-0.643999-5.799989 0-11.507978 0.463999-17.271966 0.643999v328.189359c5.711989-0.435999 11.469978-0.667999 17.271966-0.667999 5.801989 0 11.559977 0.232 17.271966 0.667999V210.383589zM373.229971 585.832856a223.591563 223.591563 0 0 1 28.709944-19.191963l-182.475644-273.087466a550.528925 550.528925 0 0 0-28.713944 19.183962l182.479644 273.095467zM410.381898 562.250902a223.447564 223.447564 0 0 1 31.913938-13.219974l-125.779754-303.647407c-10.799979 4.069992-21.389958 8.577983-31.879938 13.301974l125.745754 303.565407zM10.662679 573.47088l271.34147 112.39378a17.253966 17.253966 0 0 0 6.611987 1.323998 17.305966 17.305966 0 0 0 15.957969-10.667979 227.835555 227.835555 0 0 1 7.229986-15.69797L8.520683 535.202955c-2.369995 5.25199-4.98599 10.34198-7.203986 15.693969a17.273966 17.273966 0 0 0 9.345982 22.573956zM421.199877 217.403575c-11.391978 1.879996-22.737956 3.935992-33.915933 6.507988l64.123874 322.39537a224.589561 224.589561 0 0 1 33.883934-6.673987L421.199877 217.403575zM109.098487 383.96925l232.421546 232.419546a223.517563 223.517563 0 0 1 24.415952-24.431952L133.586439 359.611298c-8.377984 7.881985-16.595968 15.939969-24.487952 24.357952zM581.705564 549.032928a222.795565 222.795565 0 0 1 31.913938 13.219974l125.745754-303.565407c-10.48998-4.723991-21.079959-9.231982-31.879938-13.301974l-125.779754 303.647407zM538.713648 539.632946a224.143562 224.143562 0 0 1 33.883934 6.673987l64.123874-322.39537c-11.179978-2.571995-22.521956-4.625991-33.917933-6.507988l-64.089875 322.229371zM622.063485 566.644893a223.323564 223.323564 0 0 1 28.707944 19.195963l182.481644-273.097467a546.754932 546.754932 0 0 0-28.713944-19.183962l-182.475644 273.085466zM719.433295 676.512679c3.675993 8.821983 13.813973 12.979975 22.567956 9.335981l271.34147-112.37778c4.233992-1.755997 7.591985-5.11799 9.343982-9.351982s1.755997-8.989982 0-13.223974c-2.219996-5.35199-4.833991-10.43998-7.203986-15.693969l-303.275408 125.619754a229.115553 229.115553 0 0 1 7.225986 15.69197zM890.416961 359.611298L658.063415 591.960844c8.719983 7.479985 16.893967 15.623969 24.417952 24.431952l232.425546-232.421546c-7.893985-8.419984-16.109969-16.477968-24.489952-24.359952zM688.471355 623.750782a224.973561 224.973561 0 0 1 19.141963 28.759944l273.215466-182.559644c-6.103988-9.807981-12.347976-19.503962-19.005963-28.849944l-273.351466 182.649644z" fill="#C83741" p-id="8614"></path></svg>