<?xml version="1.0" standalone="no"?><!DOCTYPE svg PUBLIC "-//W3C//DTD SVG 1.1//EN" "http://www.w3.org/Graphics/SVG/1.1/DTD/svg11.dtd"><svg t="1736570262767" class="icon" viewBox="0 0 1331 1024" version="1.1" xmlns="http://www.w3.org/2000/svg" p-id="6842" xmlns:xlink="http://www.w3.org/1999/xlink" width="259.9609375" height="200"><path d="M685.005 576.922S577.843 282.01 703.949 283.904c98.995 1.536-18.944 293.018-18.944 293.018m36.096 3.737s100.685-303.257 197.504-220.006C994.637 425.984 721.1 580.659 721.1 580.659m78.643 57.011s251.98-140.595 280.32-27.545c22.246 88.78-280.32 27.545-280.32 27.545m-12.467 80.87s304.435 33.793 245.401 143.054c-46.336 85.76-245.401-143.053-245.401-143.053M579.02 759.68s-174.234 272.205-242.74 166.477c-53.81-83.021 242.74-166.477 242.74-166.477m-28.135-61.21s-304.128 109.44-290.944-26.06c10.343-106.343 290.944 26.06 290.944 26.06m29.287-87.193s-302.49-118.426-216.935-201.83c67.175-65.46 216.935 201.83 216.935 201.83" fill="#d81e06" p-id="6843"></path><path d="M508.723 305.843s-172.39-252.416-52.685-288.64c93.978-28.441 52.685 288.64 52.685 288.64m331.469 5.12S887.372 7.22 991.872 69.427c82.022 48.82-151.68 241.536-151.68 241.536m180.378 222.439s266.01-206.08 297.036-73.472c24.346 104.09-297.036 73.472-297.036 73.472m25.267 306.79s303.744 47.18 241.536 151.68c-48.82 82.022-241.536-151.68-241.536-151.68m-735.207 8.806S44.595 1055.078 13.594 922.47c-24.346-104.09 297.036-73.472 297.036-73.472m-25.267-357.99s-303.744-47.18-241.536-151.68c48.82-82.022 241.536 151.68 241.536 151.68" fill="#d81e06" p-id="6844"></path></svg>