<?xml version="1.0" standalone="no"?><!DOCTYPE svg PUBLIC "-//W3C//DTD SVG 1.1//EN" "http://www.w3.org/Graphics/SVG/1.1/DTD/svg11.dtd"><svg t="1737613165890" class="icon" viewBox="0 0 1024 1024" version="1.1" xmlns="http://www.w3.org/2000/svg" p-id="21299" xmlns:xlink="http://www.w3.org/1999/xlink" width="200" height="200"><path d="M199.92 805.29c-3.56 1.82-6.75 4.06-9.97 6.35-3.06 2.39-6.08 4.88-8.92 7.49-2.84 2.66-5.34 5.47-8.02 8.26-2.46 2.86-5.5 5.44-8.21 8.21-2.62 2.8-4.65 6.03-5.55 9.75-1.8 7.45-2.13 15.54 2.18 25.42l2.67 1.23c5.39-1.43 9.19-3.48 12.63-5.67 3.34-2.24 6.24-4.59 8.55-7.23 2.33-2.66 3.98-5.54 4.78-8.99 0.8-3.44 1.61-6.87 2.83-10.12 1.32-3.11 2.54-6.39 4.02-9.42 1.28-3.22 2.71-6.31 4.23-9.38 2.96-6.07 6.44-12.39 11.06-16.92l-0.73-2.85c-4.45 0.44-7.96 2.05-11.55 3.87z" fill="#FF9E3E" p-id="21300"></path><path d="M226.34 710.38c2.13-0.56 4.27-1.28 6.49-1.6 4.4-1.08 8.94-1.78 13.58-2.3 9.27-1.07 18.98-1.09 28.71-0.19l1.05-2.73c-8.76-5.49-18.45-9.09-28.66-11.72-5.13-1.14-10.37-2.08-15.74-2.57-2.68-0.31-5.38-0.21-8.11-0.25l-4.1-0.01-4.11 0.34c-5.52 0.31-11.13 0.96-16.88 1.79-5.53 1.39-11.1 3.34-15.47 7.21-9.12 7.03-15.58 17.54-16.5 30.05l2.19 1.96c3.37-0.2 6.09-0.78 8.78-1.27 2.55-0.63 4.96-1.26 7.39-1.7a59.4 59.4 0 0 0 6.63-1.82c2.08-0.66 4.24-1.08 6.19-1.77 1.94-0.71 3.77-1.54 5.66-2.28 1.85-0.81 3.54-1.97 5.29-3.14 3.57-2.15 7.22-4.7 11.37-6.02l3.07-1.16 3.17-0.82zM314.01 728.22c-13.39 7.66-25.5 17.2-37.01 27.59-5.61 5.33-11.13 10.83-16.37 16.63-2.68 2.85-5.01 5.99-7.51 9.03-2.52 3.02-4.92 6.14-7.15 9.39-2.26 3.23-4.78 6.32-7.02 9.62l-6.8 9.93c-2.16 3.39-3.93 7.02-5.54 10.69-0.8 1.85-1.54 3.72-2.22 5.6-0.63 1.91-1.06 3.9-1.53 5.86-0.85 3.96-1.65 7.92-2.2 11.92-0.27 4.08-0.43 8.16-0.35 12.23 0.05 2.04 0.07 4.06 0.27 6.09 0.29 2.05 0.66 4.11 1.07 6.14 0.93 4.09 1.82 8.1 3.47 12.07l2.93 0.31c10.21-13.79 15.72-26.5 22.57-38.96 6.7-12.22 8.99-26.46 15.53-39.35 1.48-3.28 3.13-6.46 4.92-9.59 1.77-3.13 3.38-6.39 5.36-9.42 3.6-6.31 7.56-12.46 11.69-18.54a304.301 304.301 0 0 1 27.67-34.87l-1.78-2.37zM212.88 633.42c8.13 3.12 17.32 1.3 26.31 3.53 2.24 0.43 4.47 0.98 6.66 1.69 2.19 0.7 4.48 1.21 6.64 2.08 4.48 1.4 8.9 3.1 13.31 4.97 8.84 3.72 17.55 8.37 25.93 13.72l2.19-1.96c-5.39-8.95-12.32-16.74-20.01-24.01-3.94-3.49-8.04-6.89-12.39-10.04-2.14-1.62-4.51-2.9-6.79-4.36-2.28-1.48-4.65-2.8-7.09-4.02-4.79-2.65-9.74-5.2-14.86-7.69-5.24-2.01-10.77-3.56-16.5-3.08-2.85 0.19-5.67 0.35-8.48 0.92-2.81 0.7-5.58 1.51-8.28 2.55-2.71 0.9-5.31 2.49-7.81 4.11-2.48 1.79-4.89 3.53-7.06 5.98l0.45 2.9c10.9 6.97 19.36 9.54 27.78 12.71z" fill="#FFC47D" p-id="21301"></path><path d="M264.55 563.19c1.61 1.35 3.59 2.22 5.38 3.46l5.72 3.44c1.88 1.24 3.54 2.76 5.29 4.21 1.78 1.43 3.28 3.14 4.88 4.79 1.62 1.64 3.21 3.33 4.64 5.17 3.17 3.47 6.06 7.27 8.85 11.19 5.64 7.83 10.65 16.47 14.95 25.53l2.9-0.52c0.13-10.55-1.7-20.92-4.53-31.25-1.55-5.1-3.31-10.22-5.52-15.22-1.07-2.52-2.34-4.94-3.69-7.35-1.34-2.41-2.59-4.9-4.21-7.19l-4.54-7.18-5.05-7.08c-1.7-2.39-3.98-4.27-6.2-6.15-2.24-1.87-4.69-3.48-7.46-4.59-2.73-1.16-5.45-2.27-8.27-3.09-2.94-0.6-5.88-1.07-8.85-1.3-1.49-0.09-2.93-0.25-4.45-0.13l-4.56 0.58c-3.05 0.62-6.01 1.23-8.99 2.59l-0.73 2.84c7.31 10.81 13.78 16.5 19.68 23.05 1.62 1.39 3.12 2.88 4.76 4.2zM325.09 845.5l-0.6-15.35-0.82-15.47c-0.72-10.43-1.1-20.59-2.39-31.42h-2.94c-3.28 9.61-6.42 19.82-9.29 29.81l-4.03 15.17-3.39 15.33c-1.05 5.14-2.61 10.26-3.92 15.47-1.25 5.21-1.59 10.53-0.82 15.94 0.75 5.4 2.16 10.87 4.53 16.34 1.18 2.74 2.72 5.44 4.55 8.13 2.02 2.57 4.1 5.43 7.71 7.01l2.45-1.63c0.85-2.82 2.01-5.15 3.11-7.59 0.95-2.37 2.09-4.8 2.95-7.18 1.77-4.78 3.18-9.59 4.13-14.45 0.97-4.86 1.14-9.81 0.48-14.84-0.71-5.05-1.5-10.17-1.71-15.27zM408.9 657.21c9.17-2.71 18.36-5.02 27.46-6.7 4.51-0.95 9.06-1.61 13.53-2.16l6.64-0.85 6.58-0.44c2.18-0.21 4.34 0.05 6.5 0.19 2.16 0.13 4.27 0.4 6.32 0.85 4.16 0.51 7.93 0.79 11.91 0.05 7.95-1.08 15.45-2.64 27.52-5.6l1.43-2.57c-4.76-11.73-15.73-18.33-26.63-21.11-2.74-0.53-5.52-0.85-8.3-0.89-2.79-0.08-5.45 0.56-8.13 1.13-2.68 0.62-5.26 1.46-7.77 2.39-2.5 0.95-5.08 1.55-7.49 2.52l-7.27 2.63-7 3.02c-4.54 2.26-8.98 4.6-13.24 7.19-8.47 5.3-16.48 10.96-23.61 17.86l1.55 2.49zM190.44 759.09a138.38 138.38 0 0 0-12.27 5.68c-3.96 2.19-7.82 4.64-11.64 7.26a135.12 135.12 0 0 1-5.84 3.94l-5.88 4.2c-3.76 3.06-6.9 6.85-8.79 11.47-3.72 9.09-5.11 20.06 0.63 30.44l2.86 0.71c9.99-5.83 15.76-10.18 21.17-15.09 2.58-2.46 4.71-5.2 6.26-8.59l2.55-5.1c0.94-1.67 2.04-3.25 3.14-4.83 2.35-3.05 4.82-6.07 7.53-8.96 2.58-3.02 5.34-5.96 8.26-8.78 5.74-5.79 11.99-11.26 18.83-16.17l-0.94-2.78c-8.98 0.74-17.5 3.41-25.87 6.6zM364.04 574.79c1.39-1.88 2.93-3.61 4.51-5.29 1.57-1.69 3.03-3.44 4.76-4.91 1.71-1.5 3.33-3.05 5.18-4.34l5.63-3.58c1.75-1.28 3.71-2.2 5.29-3.59 1.6-1.36 3.07-2.89 4.65-4.29 5.74-6.7 12.06-12.54 19.1-23.53l-0.8-2.83c-3.02-1.29-5.99-1.83-9.06-2.37l-4.57-0.46c-1.53-0.08-2.96 0.12-4.45 0.24-2.96 0.3-5.89 0.84-8.81 1.51-2.79 0.9-5.49 2.07-8.19 3.29-2.74 1.19-5.15 2.85-7.35 4.77-2.18 1.93-4.4 3.87-6.04 6.3l-4.87 7.2-4.36 7.3c-1.56 2.33-2.75 4.84-4.03 7.29-1.29 2.44-2.51 4.88-3.51 7.43-2.09 5.05-3.72 10.21-5.14 15.35-2.57 10.4-4.15 20.81-3.75 31.35l2.92 0.45c4.08-9.17 8.88-17.92 14.32-25.89 2.7-3.99 5.49-7.85 8.57-11.4z" fill="#FF9E3E" p-id="21302"></path><path d="M497.59 710.37c-5.85-5.66-13.14-9.39-20.6-11.46-7.52-2.01-14.99-2.95-22.22-3.7-7.24-0.75-14.38-0.91-21.41-0.66-7.03 0.41-13.94 1.27-20.74 2.41-13.57 2.53-26.7 6.08-39.21 11.44l0.73 2.84c13.2-0.76 26.39-0.74 39.21 0.39 6.41 0.49 12.74 1.26 18.9 2.42 6.17 1.03 12.18 2.41 17.91 4.21 5.76 1.73 11.03 4.53 15.73 7.54 4.71 3 9.25 5.45 13.83 7.92 4.59 2.48 9.19 5.15 14.09 8.46 4.93 3.33 9.72 7.46 15.94 12.18l2.79-0.93c1.74-7.68 0.97-15.61-1.67-23.13-2.76-7.43-7.41-14.35-13.28-19.93z" fill="#FFC47D" p-id="21303"></path><path d="M558.86 707.3c-1.18-5.54-3.8-10.63-7.13-14.74a29.345 29.345 0 0 0-12.26-9.02c-4.71-1.75-9.44-2.94-13.9-4.37-4.48-1.38-8.94-2.47-13.39-3.41-4.5-0.79-8.97-1.37-13.42-1.81-8.95-0.68-17.77-0.88-26.65 0.14l-0.39 2.91c7.89 3.53 15.63 7.1 22.96 11.06 3.69 1.9 7.3 3.9 10.75 6.04 3.5 2 6.9 4.08 10.08 6.32 3.19 2.21 5.94 5.02 8.43 7.73 2.48 2.7 5.05 4.71 8.03 6.19 6.1 3.15 11.86 4.91 21.93 10.53l2.85-0.71c3.03-5.33 3.21-11.32 2.11-16.86zM502.34 815.82c-1.18-4.59-2.97-8.87-5.25-12.56-2.25-3.79-5.29-6.74-8.92-9.09-3.68-2.27-7.48-4.36-10.92-6.75-3.45-2.4-6.93-4.7-10.42-7l-10.79-6.43c-7.34-4.06-14.67-8.05-22.45-11.45l-1.86 2.27c4.75 6.92 9.73 13.52 14.56 20.18l7.32 9.83c2.49 3.19 4.98 6.38 7.38 9.59 2.45 3.18 4.44 6.78 6.5 10.25 2.05 3.44 4.73 6.25 7.92 8.47 3.27 2.22 6.73 4.13 10.76 5.75 1.9 0.84 4.1 1.5 6.35 2.23 2.3 0.63 4.56 1.36 7.57 1.87l2.53-1.51c0.75-2.86 0.81-5.53 0.79-8.23-0.21-2.5-0.49-5.04-1.07-7.42z" fill="#FF9E3E" p-id="21304"></path><path d="M378.21 637.08c1.76-1.48 3.43-3.04 5.33-4.29 1.88-1.28 3.69-2.62 5.68-3.67l6.03-2.86c1.89-1.06 3.95-1.73 5.69-2.91 1.76-1.15 3.4-2.48 5.15-3.68 6.53-5.93 13.53-10.95 21.88-20.99l-0.45-2.9c-2.83-1.65-5.71-2.56-8.69-3.48l-4.48-1.03c-1.5-0.27-2.95-0.25-4.44-0.31-2.97-0.07-5.95 0.11-8.93 0.42-2.88 0.55-5.7 1.38-8.53 2.26-2.86 0.84-5.46 2.19-7.88 3.83-2.4 1.66-4.85 3.3-6.78 5.51l-5.72 6.55-5.23 6.7c-1.84 2.11-3.33 4.47-4.9 6.73-1.59 2.26-3.09 4.54-4.4 6.94-2.7 4.76-4.95 9.68-7.01 14.6-3.84 10-6.69 20.14-7.61 30.65l2.83 0.81c5.19-8.6 11.03-16.69 17.42-23.93 3.17-3.63 6.41-7.12 9.91-10.26 1.61-1.69 3.35-3.22 5.13-4.69z" fill="#FFC47D" p-id="21305"></path><path d="M409.42 874.09c-0.18-4.79-0.8-9.11-1.59-13.53-0.91-4.28-2.36-8.46-4.76-12.33-2.28-3.99-4.81-7.94-6.59-12.23-1.91-4.21-3.62-8.57-5.37-12.91-1.83-4.34-3.64-8.71-5.34-13.15-3.6-8.82-6.97-17.82-10.52-26.86l-2.92 0.36c-1.03 9.81-1.11 19.56-0.99 29.39 0.15 4.89 0.41 9.79 0.72 14.72 0.52 4.89 1 9.8 1.73 14.72 0.65 4.91 1.08 10 1.62 15.09 0.81 5.08 2.33 9.94 5.21 14.39 2.66 4.45 6.32 8.65 10.54 12.28 2.23 1.81 4.64 3.4 7.13 4.85 2.83 1.29 5.56 2.47 8.71 3.02l2.26-1.88c0.34-3.29 0.26-5.95 0.28-8.5-0.03-2.58 0.08-5.16-0.12-7.43z" fill="#FF9E3E" p-id="21306"></path><path d="M463.95 822.53c-1.24-2.82-2.56-5.66-4.11-8.26-3.11-5.22-7.04-9.84-11.77-13.56-4.67-3.82-9.68-7.14-14.22-10.9-4.63-3.65-9.28-7.23-14.01-10.65-4.83-3.33-9.67-6.58-14.6-9.68-9.95-6.1-19.97-11.93-30.61-16.8l-1.71 2.4c7.73 8.51 15.4 16.95 22.74 25.57 3.75 4.22 7.37 8.55 10.91 12.9 3.66 4.23 7.17 8.55 10.61 12.89 3.38 4.37 6.45 9.06 9.25 13.78 2.98 4.61 6.29 8.74 10.35 12.33 8.09 7.27 16.52 13.71 28.9 19.92l2.63-1.31c1.02-6.92 0.34-13.61-1.31-19.71-0.74-3.15-1.79-6.11-3.05-8.92z" fill="#FFC47D" p-id="21307"></path><path d="M147.04 697.53c1.35-1.41 2.87-2.66 4.37-3.94 1.48-1.33 3.22-2.31 4.86-3.47 1.65-1.18 3.38-2.25 5.18-3.2 3.48-2.23 7.23-4.14 11.08-5.95 7.7-3.7 16.05-6.72 24.68-9.11l0.07-2.93c-9.2-2.24-18.62-2.67-28.24-2.22-4.78 0.37-9.62 0.91-14.44 1.92-2.42 0.47-4.8 1.1-7.17 1.87-2.37 0.76-4.83 1.35-7.14 2.38-2.36 0.93-4.76 1.81-7.23 2.69l-7.25 3.21c-2.46 1.05-4.52 2.79-6.58 4.46-2.03 1.72-3.88 3.64-5.29 5.98-1.45 2.29-2.81 4.6-3.95 7.01-0.93 2.58-1.73 5.18-2.29 7.84-0.26 1.34-0.57 2.63-0.63 4.02 0 1.43-0.02 2.82 0.03 4.22 0.25 2.86 0.52 5.63 1.53 8.53l2.7 1.17c11.36-4.48 17.42-8.86 24.04-12.65 1.42-1.12 2.95-2.11 4.29-3.29 1.39-1.14 2.35-2.74 3.68-4.07l3.7-4.47z" fill="#FF9E3E" p-id="21308"></path><path d="M608.39 450.14s-67.23-78.31-29.53-93.57c29.58-11.97 29.53 93.58 29.53 93.57m29.7-5.9s-6.49-107.04 32.27-93.31c30.43 10.79-32.27 93.31-32.27 93.31m23.02 17.72s62.13-86.44 85.68-50.21c18.5 28.46-85.67 50.21-85.68 50.21m5.87 27.11s104.3-28.63 99.42 14.09c-3.82 33.54-99.42-14.09-99.42-14.09m-11.72 26.05s102.02 42.39 69.91 72.98c-25.21 24.01-69.91-72.98-69.91-72.98m-18.64 17.73s50.44 96.02 6.57 100.34c-34.45 3.4-6.57-100.34-6.57-100.34m-28.23-11.82s-21.42 109.95-58.51 84.9c-29.12-19.66 58.51-84.9 58.51-84.9m-17.57-17.34s-85.22 69.57-98.86 27.4c-10.71-33.11 98.86-27.4 98.86-27.4m0-24.01s-108.12 1.3-92.12-39.09c12.57-31.7 92.11 39.09 92.12 39.09" fill="#F0C267" p-id="21309"></path><path d="M532.23 396.97s-91.49-58.65-56.45-85.8c27.51-21.31 56.45 85.8 56.45 85.8m94.85-41.34s-24.05-106.74 17.21-100.13c32.38 5.18-17.21 100.13-17.21 100.13m86.76 41.34s58.18-92.24 85.1-56.92c21.14 27.74-85.1 56.93-85.1 56.92m41.01 95.65s105.86-24.25 99.3 17.35c-5.14 32.66-99.3-17.35-99.3-17.35m-46.86 87.49s91.48 58.65 56.45 85.8c-27.51 21.32-56.45-85.8-56.45-85.8m-94.85 41.35s24.05 106.75-17.21 100.13c-32.38-5.19 17.21-100.13 17.21-100.13m-86.77-41.35s-58.18 92.24-85.09 56.92c-21.15-27.73 85.09-56.92 85.09-56.92m-35.15-95.63s-105.86 24.24-99.3-17.35c5.14-32.67 99.3 17.35 99.3 17.35" fill="#F19849" p-id="21310"></path><path d="M409.2 447.71s-105.33-58.2-110.99-20.03c-7.22 48.61 110.99 20.03 110.99 20.03zM323.3 632.51c24.63 46.9 109.33-52.4 109.33-52.4s-128.66 15.58-109.33 52.4zM934.49 344.58c-24.63-46.89-109.33 52.4-109.33 52.4v0.01c0-0.01 128.67-15.59 109.33-52.41zM479.5 326.09s-52.8-112.53-81.01-83.97c-35.94 36.36 81.01 83.97 81.01 83.97zM470.41 790c46.34 22.91 55.96-103.56 55.96-103.56S434.04 772.01 470.41 790zM585.99 149.13c-49.47 8.7 15.37 117.88 15.37 117.88s23.48-124.7-15.37-117.88zM787.38 187.09c-46.34-22.91-55.95 103.56-55.95 103.56s92.32-85.57 55.95-103.56zM844.58 529.48s108.15 54.96 113.97 18.92c7.42-45.9-113.97-18.92-113.97-18.92zM650.57 710.07s-23.48 124.71 15.37 117.88c49.48-8.69-15.37-117.88-15.37-117.88zM778.29 651s52.8 112.52 81.01 83.97C895.24 698.6 778.29 651 778.29 651z" fill="#EC7351" p-id="21311"></path></svg>