<?xml version="1.0" standalone="no"?><!DOCTYPE svg PUBLIC "-//W3C//DTD SVG 1.1//EN" "http://www.w3.org/Graphics/SVG/1.1/DTD/svg11.dtd"><svg t="1737612849255" class="icon" viewBox="0 0 1140 1024" version="1.1" xmlns="http://www.w3.org/2000/svg" p-id="6977" xmlns:xlink="http://www.w3.org/1999/xlink" width="222.65625" height="200"><path d="M580.945455 4.817455l418.78109 208.826181c7.255273 4.200727 13.108364 9.757091 16.733091 16.465455l116.8 208c10.333091 19.211636-8.686545 24.657455-27.357091 35.531636-1.396364 0.541091-3.048727 1.111273-4.44509 1.937455L1016.448 512l5.573818 261.76c0 17.018182-10.868364 30.952727-25.093818 36.555636L580.945455 1018.321455c-11.438545 5.573818-24.552727 5.026909-35.141819 0l-418.775272-209.972364c-13.399273-6.685091-21.725091-20.608-21.725091-34.571636L110.050909 512 12.520727 473.640727c-12.997818-6.126545-12.997818-25.344 0-57.640727l97.530182-185.890909c4.741818-8.104727 11.415273-13.672727 19.211636-17.297455L545.821091 4.817455c11.426909-5.841455 24.535273-5.841455 35.124364 0z m-40.709819 970.432V531.054545l-70.836363 128.186182c-6.144 11.153455-20.654545 15.330909-31.808 8.930909l-0.541091-0.285091L141.847273 531.054545v248.331637l398.382545 195.863273zM564.363636 55.860364c-29.905455 12.369455-51.671273 21.44-65.303272 27.229091-53.12 22.528-117.655273-17.111273-152.878546 0-32.558545 15.808-7.930182 69.102545-48.215273 91.456-13.381818 7.424-56.052364 29.329455-128.023272 65.728L573.090909 442.472727l395.031273-202.199272L564.363636 55.866182z m22.725819 911.889454l385.082181-188.893091V527.330909l-280.366545 142.120727-0.541091 0.290909c-11.159273 6.4-25.669818 2.222545-31.784727-8.936727l-72.389818-133.474909v440.418909zM988.968727 276.363636l-392.971636 192.128 85.306182 153.338182 403.072-179.357091-95.406546-166.109091zM444.858182 621.829818l91.648-160.884363-398.545455-184.581819L51.578182 442.472727l393.285818 179.357091z" fill="#d81e06" p-id="6978"></path><path d="M629.661091 347.589818l-1.594182 94.882909-34.903273-0.581818 0.861091-51.229091C567.726545 406.72 529.931636 416 488.727273 416c-77.282909 0-142.545455-32.634182-142.545455-81.454545 0-45.579636 56.878545-77.044364 127.313455-81.029819C478.510545 253.236364 461.364364 232.727273 485.818182 232.727273c24.453818 0 11.694545 20.468364 16.017454 20.677818 12.218182 0.593455 24.034909 2.013091 35.246546 4.183273a56.395636 56.395636 0 0 1-0.331637-0.744728h-0.238545v-0.570181A53.166545 53.166545 0 0 1 532.363636 235.636364c0-7.255273 1.442909-14.149818 4.148364-20.637091v-20.602182C510.155636 213.073455 469.457455 224 424.727273 224c-43.345455 0-82.914909-10.269091-109.306182-27.898182v136.378182h-34.909091V129.728h3.229091c9.536-38.446545 61.730909-64.418909 125.032727-68.165818C414.021818 61.248 401.687273 35.490909 424.727273 35.490909s9.245091 25.716364 13.789091 25.949091c64.267636 3.275636 117.556364 29.399273 127.197091 68.282182h5.701818v48.709818c22.830545-13.405091 53.841455-21.858909 88.064-23.819636 5.079273-0.290909-13.422545-26.618182 12.520727-26.618182s10.286545 26.257455 13.928727 26.402909c65.506909 2.664727 120.186182 28.974545 129.966546 68.416h5.701818v127.115636h-34.909091V287.488C760.343273 306.164364 719.645091 317.090909 674.909091 317.090909c-16.872727 0-33.175273-1.553455-48.349091-4.497454 3.072 6.865455 4.712727 14.208 4.712727 21.952a53.061818 53.061818 0 0 1-1.611636 13.044363zM674.909091 276.363636c57.675636 0 101.818182-22.074182 101.818182-40.727272 0-17.367273-38.242909-37.690182-90.042182-40.418909-3.857455-0.203636 10.245818 34.600727-14.685091 34.600727s-8.331636-34.693818-13.730909-34.292364c-49.314909 3.700364-85.178182 23.296-85.178182 40.110546 0 18.653091 44.142545 40.727273 101.818182 40.727272z m-250.181818-93.090909c57.675636 0 101.818182-22.074182 101.818182-40.727272 0-17.192727-37.480727-37.282909-88.494546-40.331637-4.346182-0.261818 10.740364 36.241455-13.323636 36.241455s-9.146182-36.497455-13.573818-36.224C360.267636 105.326545 322.909091 125.381818 322.909091 142.545455c0 18.653091 44.142545 40.727273 101.818182 40.727272z m64 192c21.352727 0 40.849455-3.025455 56.942545-7.784727 27.368727-8.087273 44.875636-21.195636 44.875637-32.942545 0-17.448727-38.609455-37.882182-90.792728-40.453819-3.613091-0.180364 10.705455 40.453818-13.934545 40.453819s-7.255273-40.552727-12.16-40.221091c-50.117818 3.397818-86.749091 23.226182-86.749091 40.221091 0 18.653091 44.142545 40.727273 101.818182 40.727272z" fill="#d81e06" p-id="6979"></path></svg>