<?xml version="1.0" standalone="no"?><!DOCTYPE svg PUBLIC "-//W3C//DTD SVG 1.1//EN" "http://www.w3.org/Graphics/SVG/1.1/DTD/svg11.dtd"><svg t="1737612351381" class="icon" viewBox="0 0 1024 1024" version="1.1" xmlns="http://www.w3.org/2000/svg" p-id="6803" xmlns:xlink="http://www.w3.org/1999/xlink" width="200" height="200"><path d="M211.114667 1005.226667c-28.16 0-51.2-23.04-51.2-51.2V373.76c0-28.16 23.04-51.2 51.2-51.2h204.8c28.16 0 51.2 23.04 51.2 51.2v580.266667c0 28.16-23.04 51.2-51.2 51.2h-204.8z" fill="#FF4633" p-id="6804"></path><path d="M415.914667 339.626667c18.773333 0 34.133333 15.36 34.133333 34.133333v580.266667c0 18.773333-15.36 34.133333-34.133333 34.133333h-204.8c-18.773333 0-34.133333-15.36-34.133334-34.133333V373.76c0-18.773333 15.36-34.133333 34.133334-34.133333h204.8m0-34.133334h-204.8c-37.546667 0-68.266667 30.72-68.266667 68.266667v580.266667c0 37.546667 30.72 68.266667 68.266667 68.266666h204.8c37.546667 0 68.266667-30.72 68.266666-68.266666V373.76c0-37.546667-30.72-68.266667-68.266666-68.266667z" fill="#850000" p-id="6805"></path><path d="M160.426667 413.013333h307.2v68.266667H160.426667z" fill="#FDAB42" p-id="6806"></path><path d="M450.56 430.08v34.133333H177.493333v-34.133333h273.066667m34.133333-34.133333H143.36v102.4h341.333333v-102.4z" fill="#850000" p-id="6807"></path><path d="M160.426667 851.626667h307.2v68.266666H160.426667z" fill="#FDAB42" p-id="6808"></path><path d="M450.56 868.693333v34.133334H177.493333v-34.133334h273.066667m34.133333-34.133333H143.36v102.4h341.333333v-102.4z" fill="#850000" p-id="6809"></path><path d="M167.758507 666.448213l146.261333-146.261333 146.26304 146.261333-146.261333 146.26304z" fill="#FDAB42" p-id="6810"></path><path d="M314.026667 544.426667l122.026666 122.026666L314.026667 788.48l-122.026667-122.026667L314.026667 544.426667m0-48.298667l-170.325334 170.325333 170.325334 170.325334 170.325333-170.325334-170.325333-170.325333z" fill="#850000" p-id="6811"></path><path d="M313.514667 332.8c-9.386667 0-17.066667-7.68-17.066667-17.066667v-112.64c0-9.386667 7.68-17.066667 17.066667-17.066666s17.066667 7.68 17.066666 17.066666v112.64c0 9.386667-7.68 17.066667-17.066666 17.066667z" fill="#850000" p-id="6812"></path><path d="M625.664 985.770667c-5.802667 0-11.605333-1.024-17.066667-2.901334l-192.853333-68.949333c-12.8-4.608-23.04-13.994667-29.013333-26.282667s-6.656-26.282667-2.048-39.082666l207.018666-578.389334c7.338667-20.309333 26.624-33.962667 48.298667-33.962666 5.802667 0 11.605333 1.024 17.066667 2.901333l192.853333 68.949333c12.8 4.608 23.04 13.994667 29.013333 26.282667s6.656 26.282667 2.048 39.082667L674.133333 951.808c-7.338667 20.309333-26.794667 33.962667-48.469333 33.962667z" fill="#FF4633" p-id="6813"></path><path d="M640.341333 252.928c3.925333 0 7.68 0.682667 11.264 2.048l192.853334 68.949333c17.749333 6.314667 26.965333 25.941333 20.650666 43.690667L658.090667 946.005333c-4.778667 13.482667-17.749333 22.528-32.256 22.528-3.925333 0-7.68-0.682667-11.264-2.048L421.546667 897.706667c-8.533333-3.072-15.36-9.216-19.285334-17.578667-3.925333-8.362667-4.437333-17.578667-1.365333-26.112l207.018667-578.389333c4.949333-13.653333 17.92-22.698667 32.426666-22.698667m0-34.133333c-27.989333 0-54.442667 17.408-64.512 45.226666l-207.018666 578.56c-12.629333 35.328 5.973333 74.581333 41.301333 87.210667l192.853333 68.949333c7.509333 2.730667 15.189333 3.925333 22.869334 3.925334 27.989333 0 54.442667-17.408 64.512-45.226667l207.018666-578.389333c12.629333-35.328-5.973333-74.581333-41.301333-87.210667l-192.853333-68.949333c-7.68-2.730667-15.36-4.096-22.869334-4.096z" fill="#850000" p-id="6814"></path><path d="M548.734293 390.36416l23.005867-64.273067 289.2288 103.5264-23.005867 64.273067z" fill="#FDAB42" p-id="6815"></path><path d="M582.144 347.818667l257.024 91.989333-11.434667 32.085333-257.024-91.989333 11.434667-32.085333M561.493333 304.298667l-34.474666 96.426666 321.365333 115.029334 34.474667-96.426667L561.493333 304.298667z" fill="#850000" p-id="6816"></path><path d="M400.981333 803.31264l23.005867-64.273067 289.2288 103.5264-23.005867 64.273067z" fill="#FDAB42" p-id="6817"></path><path d="M434.346667 760.832l257.024 91.989333-11.434667 32.085334-257.024-91.989334 11.434667-32.085333m-20.650667-43.690667l-34.474667 96.426667 321.365334 115.029333 34.474666-96.426666-321.365333-115.029334z" fill="#850000" p-id="6818"></path><path d="M493.2096 567.166293l186.990933-88.405333 88.405334 186.989227-186.989227 88.405333z" fill="#FDAB42" p-id="6819"></path><path d="M672.085333 501.589333l73.728 155.989334-155.989333 73.728-73.728-155.989334 155.989333-73.728m16.384-45.568l-217.770666 102.912 102.912 217.770667 217.770666-102.912-102.912-217.770667z" fill="#850000" p-id="6820"></path><path d="M760.661333 282.453333c-2.048 0-4.096-0.341333-6.144-1.194666-8.704-3.413333-13.141333-13.312-9.728-22.186667l2.730667-6.826667c15.701333-39.936 51.882667-68.437333 94.378667-74.410666l14.336-2.048c9.386667-1.365333 17.92 5.290667 19.285333 14.506666 1.365333 9.386667-5.290667 17.92-14.506667 19.285334l-14.336 2.048c-30.378667 4.266667-56.149333 24.576-67.242666 53.077333l-2.730667 6.826667c-2.730667 6.826667-9.216 10.922667-16.042667 10.922666z" fill="#850000" p-id="6821"></path><path d="M388.437333 169.984l-12.117333-22.698667c-0.341333-0.682667-0.853333-1.194667-1.536-1.536l-22.528-12.458666c-2.56-1.365333-2.56-5.12 0-6.485334l22.698667-12.117333c0.682667-0.341333 1.194667-0.853333 1.536-1.536l12.458666-22.528c1.365333-2.56 5.12-2.56 6.485334 0l12.117333 22.698667c0.341333 0.682667 0.853333 1.194667 1.536 1.536l22.528 12.458666c2.56 1.365333 2.56 5.12 0 6.485334l-22.698667 12.117333c-0.682667 0.341333-1.194667 0.853333-1.536 1.536l-12.458666 22.528c-1.536 2.730667-5.12 2.56-6.485334 0zM559.104 133.632l-19.114667-35.669333c-0.512-1.024-1.365333-1.706667-2.218666-2.389334l-35.328-19.626666c-3.925333-2.218667-3.925333-8.021333 0-10.069334l35.669333-19.114666c1.024-0.512 1.706667-1.365333 2.389333-2.218667l19.626667-35.328c2.218667-3.925333 8.021333-3.925333 10.069333 0l19.114667 35.669333c0.512 1.024 1.365333 1.706667 2.218667 2.389334l35.328 19.626666c3.925333 2.218667 3.925333 8.021333 0 10.069334l-35.669334 19.114666c-1.024 0.512-1.706667 1.365333-2.389333 2.218667l-19.626667 35.328c-2.048 4.096-7.850667 4.096-10.069333 0z" fill="#850000" p-id="6822"></path></svg>